<svg xmlns="http://www.w3.org/2000/svg" width="351.78021240234375" height="106.5054931640625" fill="none" style=""><rect id="backgroundrect" width="100%" height="100%" x="0" y="0" fill="none" stroke="none" class="" style=""/>









<g class="currentLayer" style=""><title>Layer 1</title><path d="M93.93 94.2987H76.8668L87.1185 59.4013H78.4493L64.2071 106H47.1439L75.3532 11.6325H92.4163L82.7839 44.7403H91.4531L105.145 0H122.208L93.93 94.2987Z" fill="#242424" id="svg_1" class="" fill-opacity="1"/><path d="M123.584 11.6325H156.128L151.243 26.5H136.45L131.084 44.6714H145.945L141.267 59.3325H126.749L121.038 78.5364H136.863L131.152 94.2299H99.2278L123.584 11.6325Z" fill="#242424" id="svg_2" class="" fill-opacity="1"/><path d="M123.584,11.6325 H156.128 L151.243,26.5 H136.45 L131.084,44.6714 H145.945 L141.267,59.3325 H126.749 L121.038,78.5364 H136.863 L131.152,94.2299 H99.2278 L123.584,11.6325 z" fill="#242424" class="" id="svg_17" fill-opacity="1"/><path d="M151.312 106H134.111L161.563 11.6325H192.8C196.515 11.6325 198.992 12.6649 200.299 14.7987C201.607 16.9325 201.813 19.3416 200.988 22.0948L192.731 50.1779C192.318 51.4169 191.561 52.5182 190.392 53.5507C189.222 54.5831 187.571 55.0649 185.438 55.0649C186.745 55.2714 187.846 56.0974 188.741 57.5429C189.635 58.9883 189.635 61.1909 188.741 64.1507L179.865 94.2987H162.733L172.228 61.8792C172.434 61.1909 172.503 60.5714 172.297 59.952C172.09 59.3325 171.471 59.0571 170.439 59.0571H164.728L151.312 106ZM174.154 46.874C174.98 46.874 175.737 46.6675 176.494 46.2546C177.182 45.8416 177.732 45.0156 178.145 43.7078L182.686 28.3584C183.374 26.087 182.479 24.9169 180.071 24.9169H174.705L168.237 46.874H174.154Z" fill="#242424" id="svg_3" class="" fill-opacity="1"/><path d="M151.312,106 H134.111 L161.563,11.6325 H192.8 C196.515,11.6325 198.992,12.6649 200.299,14.7987 C201.607,16.9325 201.813,19.3416 200.988,22.0948 L192.731,50.1779 C192.318,51.4169 191.561,52.5182 190.392,53.5507 C189.222,54.5831 187.571,55.0649 185.438,55.0649 C186.745,55.2714 187.846,56.0974 188.741,57.5429 C189.635,58.9883 189.635,61.1909 188.741,64.1507 L179.865,94.2987 H162.733 L172.228,61.8792 C172.434,61.1909 172.503,60.5714 172.297,59.952 C172.09,59.3325 171.471,59.0571 170.439,59.0571 H164.728 L151.312,106 zM174.154,46.874 C174.98,46.874 175.737,46.6675 176.494,46.2546 C177.182,45.8416 177.732,45.0156 178.145,43.7078 L182.686,28.3584 C183.374,26.087 182.479,24.9169 180.071,24.9169 H174.705 L168.237,46.874 H174.154 z" fill="#242424" class="" id="svg_18" fill-opacity="1"/><path d="M242.957 11.6325C245.641 11.6325 247.567 12.5961 248.806 14.5234C250.044 16.4507 250.319 18.6533 249.631 21.0623L230.642 85.5572C229.61 88.9987 227.821 91.2701 225.344 92.5091C222.867 93.7481 220.184 94.2987 217.363 94.2987H196.997C195.552 94.2987 194.245 94.0234 193.006 93.5416C191.768 93.0598 190.805 92.3026 189.979 91.339C189.153 90.3753 188.672 89.1364 188.397 87.7598C188.121 86.3831 188.259 84.8 188.809 83.0104L207.455 19.6857C208.074 17.2766 209.313 15.2805 211.17 13.8351C213.028 12.3896 215.367 11.6325 218.188 11.6325H242.957ZM225.069 24.9169C224.243 24.9169 223.624 25.1234 223.28 25.4675C222.867 25.8805 222.661 26.3623 222.454 26.913L207.249 78.3987C206.836 79.7753 207.386 80.4637 208.831 80.4637H213.235C214.679 80.4637 215.574 79.7753 215.987 78.3987L231.123 26.9818C231.467 25.5364 230.917 24.8481 229.403 24.8481H225.069V24.9169Z" fill="#242424" id="svg_4" class="" fill-opacity="1"/><path d="M22.83585397453308,10.491853100585935 L21.25335397453308,15.860653100585935 H17.05635397453308 L9.969623974533082,40.15805310058593 H3.846153974533081 L11.07047397453308,15.79185310058594 H6.804683974533081 L8.387153974533081,10.422953100585936 H22.83585397453308 V10.491853100585935 z" fill="#242424" id="svg_7" class="" fill-opacity="1"/><path d="M31.161053974533083,40.15805310058593 H25.037653974533082 L28.684153974533082,27.630853100585938 H25.588053974533082 L21.87265397453308,40.15805310058593 H15.749153974533082 L24.487153974533083,10.491853100585935 H30.610653974533083 L27.17055397453308,22.399653100585937 H30.26665397453308 L33.775653974533085,10.491853100585935 H39.89905397453308 L31.161053974533083,40.15805310058593 z" fill="#242424" id="svg_8" class="" fill-opacity="1"/><path d="M41.82555397453308,10.491853100585935 H53.52205397453308 L51.939553974533084,15.860653100585935 H46.43535397453308 L44.50885397453308,22.399653100585937 H49.87545397453308 L48.29305397453308,27.699653100585934 H42.92635397453308 L40.86225397453308,34.58275310058593 H46.57295397453308 L44.50885397453308,40.22695310058593 H33.08755397453308 L41.82555397453308,10.491853100585935 z" fill="#242424" id="svg_9" class="" fill-opacity="1"/><path fill="#ce0000" fill-opacity="1" stroke="none" stroke-opacity="1" stroke-width="1" stroke-dasharray="none" stroke-linejoin="miter" stroke-linecap="butt" stroke-dashoffset="" fill-rule="nonzero" opacity="1" marker-start="" marker-mid="" marker-end="" d="M249.23077040616195,54.27858214658894 C249.23077040616195,28.265292252353426 271.34135699940117,7.194527438022661 298.63837748488163,7.194527438022661 C325.93539797036215,7.194527438022661 348.0459845636013,28.265292252353426 348.0459845636013,54.27858214658894 C348.0459845636013,80.29187204082446 325.93539797036215,101.36263685515522 298.63837748488163,101.36263685515522 C271.34135699940117,101.36263685515522 249.23077040616195,80.29187204082446 249.23077040616195,54.27858214658894 z" id="svg_10" class=""/><path fill="#f0f0f0" fill-opacity="1" stroke="none" stroke-opacity="1" stroke-width="1" stroke-dasharray="none" stroke-linejoin="miter" stroke-linecap="butt" stroke-dashoffset="" fill-rule="nonzero" opacity="1" marker-start="" marker-mid="" marker-end="" d="M256.82698148193003,54.02031289384295 C256.82698148193003,32.43577958493667 275.5376030091987,14.95230760472256 298.63713575891336,14.95230760472256 C321.7366685086279,14.95230760472256 340.4472900358966,32.43577958493667 340.4472900358966,54.02031289384295 C340.4472900358966,75.60484620274921 321.7366685086279,93.08831818296333 298.63713575891336,93.08831818296333 C275.5376030091987,93.08831818296333 256.82698148193003,75.60484620274921 256.82698148193003,54.02031289384295 z" class="" id="svg_16"/><path fill="#bc0000" fill-opacity="1" stroke="none" stroke-opacity="1" stroke-width="1" stroke-dasharray="none" stroke-linejoin="miter" stroke-linecap="butt" stroke-dashoffset="" fill-rule="nonzero" opacity="1" marker-start="" marker-mid="" marker-end="" d="M263.8863200892148,53.698590518190876 C263.8863200892148,35.09787367740577 279.56803064112756,20.031293036369775 298.92816712497046,20.031293036369775 C318.28830360881335,20.031293036369775 333.97001416072595,35.09787367740577 333.97001416072595,53.698590518190876 C333.97001416072595,72.299307358976 318.28830360881335,87.36588800001198 298.92816712497046,87.36588800001198 C279.56803064112756,87.36588800001198 263.8863200892148,72.299307358976 263.8863200892148,53.698590518190876 z" class="" id="svg_20"/><path fill="#002d5c" fill-opacity="1" stroke="none" stroke-opacity="1" stroke-width="1" stroke-dasharray="none" stroke-linejoin="miter" stroke-linecap="butt" stroke-dashoffset="" fill-rule="nonzero" opacity="1" marker-start="" marker-mid="" marker-end="" d="M272.37157128197487,53.23175289104429 C272.37157128197487,38.93331823096664 284.4261558232076,27.351586156303703 299.30835896053185,27.351586156303703 C314.1905620978561,27.351586156303703 326.2451466390887,38.93331823096664 326.2451466390887,53.23175289104429 C326.2451466390887,67.53018755112193 314.1905620978561,79.11191962578484 299.30835896053185,79.11191962578484 C284.4261558232076,79.11191962578484 272.37157128197487,67.53018755112193 272.37157128197487,53.23175289104429 z" class="" id="svg_26"/><path fill="#f0f0f0" stroke-dashoffset="" fill-rule="nonzero" marker-start="" marker-mid="" marker-end="" id="svg_23" d="M274.8072705370355,46.22979014415371 L293.4627423140741,46.22979014415371 L299.2274266443299,30.269019643678405 L304.99211425247006,46.22979014415371 L323.64758275160153,46.22979014415371 L308.5550166674603,56.09397588135202 L314.3199992842233,72.05474638182731 L299.2274266443299,62.19029201156434 L284.134857282322,72.05474638182731 L289.89984153798684,56.09397588135202 L274.8072705370355,46.22979014415371 z" style="color: rgb(0, 0, 0);" class="" fill-opacity="1"/></g></svg>